<mxfile host="app.diagrams.net" modified="2023-07-22T00:35:51.809Z" agent="Mozilla/5.0 (Windows NT 10.0; Win64; x64) AppleWebKit/537.36 (KHTML, like Gecko) Chrome/115.0.0.0 Safari/537.36" etag="dmz1ul3XeM9TcUmhA6vh" version="21.6.5" type="device">
  <diagram name="Page-1" id="fsgy_rvtdtV8e7y7_6XF">
    <mxGraphModel dx="1026" dy="906" grid="1" gridSize="10" guides="1" tooltips="1" connect="1" arrows="1" fold="1" page="1" pageScale="1" pageWidth="850" pageHeight="1100" math="0" shadow="0">
      <root>
        <mxCell id="0" />
        <mxCell id="1" parent="0" />
        <mxCell id="LhfVeXYQ2VsqvVL9Ju7a-4" value="" style="group" vertex="1" connectable="0" parent="1">
          <mxGeometry x="400" y="240" width="270" height="120" as="geometry" />
        </mxCell>
        <mxCell id="4zEHHfHkQW4jpvZdI9iD-4" value="&lt;h1&gt;face&lt;/h1&gt;&lt;p&gt;Interface using React and GraphQL client.&lt;/p&gt;" style="text;html=1;strokeColor=none;fillColor=none;spacing=5;spacingTop=-20;whiteSpace=wrap;overflow=hidden;rounded=0;" parent="LhfVeXYQ2VsqvVL9Ju7a-4" vertex="1">
          <mxGeometry width="190" height="120" as="geometry" />
        </mxCell>
        <mxCell id="4zEHHfHkQW4jpvZdI9iD-9" value="ui" style="rounded=0;whiteSpace=wrap;html=1;" parent="LhfVeXYQ2VsqvVL9Ju7a-4" vertex="1">
          <mxGeometry x="210" y="40" width="60" height="20" as="geometry" />
        </mxCell>
        <mxCell id="4zEHHfHkQW4jpvZdI9iD-10" value="icons" style="rounded=0;whiteSpace=wrap;html=1;" parent="LhfVeXYQ2VsqvVL9Ju7a-4" vertex="1">
          <mxGeometry x="70" y="100" width="60" height="20" as="geometry" />
        </mxCell>
        <mxCell id="4zEHHfHkQW4jpvZdI9iD-12" value="client" style="rounded=0;whiteSpace=wrap;html=1;" parent="LhfVeXYQ2VsqvVL9Ju7a-4" vertex="1">
          <mxGeometry y="100" width="60" height="20" as="geometry" />
        </mxCell>
        <mxCell id="4zEHHfHkQW4jpvZdI9iD-15" value="ux" style="rounded=0;whiteSpace=wrap;html=1;" parent="LhfVeXYQ2VsqvVL9Ju7a-4" vertex="1">
          <mxGeometry x="210" y="70" width="60" height="20" as="geometry" />
        </mxCell>
        <mxCell id="4zEHHfHkQW4jpvZdI9iD-16" value="viz" style="rounded=0;whiteSpace=wrap;html=1;" parent="LhfVeXYQ2VsqvVL9Ju7a-4" vertex="1">
          <mxGeometry x="210" y="100" width="60" height="20" as="geometry" />
        </mxCell>
        <mxCell id="LhfVeXYQ2VsqvVL9Ju7a-2" value="theme" style="rounded=0;whiteSpace=wrap;html=1;" vertex="1" parent="LhfVeXYQ2VsqvVL9Ju7a-4">
          <mxGeometry x="140" y="100" width="60" height="20" as="geometry" />
        </mxCell>
        <mxCell id="LhfVeXYQ2VsqvVL9Ju7a-6" value="" style="group" vertex="1" connectable="0" parent="1">
          <mxGeometry x="40" y="240" width="310" height="160" as="geometry" />
        </mxCell>
        <mxCell id="4zEHHfHkQW4jpvZdI9iD-7" value="&lt;h1&gt;inter&lt;/h1&gt;&lt;p&gt;MAUI/JS interoperability using GraphQL server.&lt;/p&gt;" style="text;html=1;strokeColor=none;fillColor=none;spacing=5;spacingTop=-20;whiteSpace=wrap;overflow=hidden;rounded=0;" parent="LhfVeXYQ2VsqvVL9Ju7a-6" vertex="1">
          <mxGeometry width="190" height="120" as="geometry" />
        </mxCell>
        <mxCell id="4zEHHfHkQW4jpvZdI9iD-17" value=".NET 7" style="rounded=0;whiteSpace=wrap;html=1;" parent="LhfVeXYQ2VsqvVL9Ju7a-6" vertex="1">
          <mxGeometry x="210" y="70" width="60" height="20" as="geometry" />
        </mxCell>
        <mxCell id="4zEHHfHkQW4jpvZdI9iD-18" value="server" style="rounded=0;whiteSpace=wrap;html=1;" parent="LhfVeXYQ2VsqvVL9Ju7a-6" vertex="1">
          <mxGeometry x="210" y="100" width="60" height="20" as="geometry" />
        </mxCell>
        <mxCell id="LhfVeXYQ2VsqvVL9Ju7a-5" value="MAUI" style="rounded=0;whiteSpace=wrap;html=1;" vertex="1" parent="LhfVeXYQ2VsqvVL9Ju7a-6">
          <mxGeometry x="210" y="40" width="60" height="20" as="geometry" />
        </mxCell>
        <mxCell id="LhfVeXYQ2VsqvVL9Ju7a-9" value="" style="group" vertex="1" connectable="0" parent="1">
          <mxGeometry x="400" y="400" width="270" height="120" as="geometry" />
        </mxCell>
        <mxCell id="4zEHHfHkQW4jpvZdI9iD-5" value="&lt;h1&gt;work&lt;/h1&gt;&lt;p&gt;Cloud computing based in Node using xstate machines and streaming events.&lt;/p&gt;" style="text;html=1;strokeColor=none;fillColor=none;spacing=5;spacingTop=-20;whiteSpace=wrap;overflow=hidden;rounded=0;" parent="LhfVeXYQ2VsqvVL9Ju7a-9" vertex="1">
          <mxGeometry width="190" height="120" as="geometry" />
        </mxCell>
        <mxCell id="4zEHHfHkQW4jpvZdI9iD-8" value="machine" style="rounded=0;whiteSpace=wrap;html=1;" parent="LhfVeXYQ2VsqvVL9Ju7a-9" vertex="1">
          <mxGeometry x="210" y="40" width="60" height="20" as="geometry" />
        </mxCell>
        <mxCell id="4zEHHfHkQW4jpvZdI9iD-14" value="cron" style="rounded=0;whiteSpace=wrap;html=1;" parent="LhfVeXYQ2VsqvVL9Ju7a-9" vertex="1">
          <mxGeometry x="210" y="100" width="60" height="20" as="geometry" />
        </mxCell>
        <mxCell id="LhfVeXYQ2VsqvVL9Ju7a-8" value="streaming" style="rounded=0;whiteSpace=wrap;html=1;" vertex="1" parent="LhfVeXYQ2VsqvVL9Ju7a-9">
          <mxGeometry x="210" y="70" width="60" height="20" as="geometry" />
        </mxCell>
        <mxCell id="LhfVeXYQ2VsqvVL9Ju7a-47" value="" style="edgeStyle=orthogonalEdgeStyle;rounded=0;orthogonalLoop=1;jettySize=auto;html=1;" edge="1" parent="1" source="4zEHHfHkQW4jpvZdI9iD-12" target="4zEHHfHkQW4jpvZdI9iD-18">
          <mxGeometry relative="1" as="geometry" />
        </mxCell>
        <mxCell id="LhfVeXYQ2VsqvVL9Ju7a-51" value="GraphQL" style="edgeLabel;html=1;align=center;verticalAlign=middle;resizable=0;points=[];" vertex="1" connectable="0" parent="LhfVeXYQ2VsqvVL9Ju7a-47">
          <mxGeometry x="-0.0296" y="3" relative="1" as="geometry">
            <mxPoint y="-3" as="offset" />
          </mxGeometry>
        </mxCell>
        <mxCell id="LhfVeXYQ2VsqvVL9Ju7a-49" style="edgeStyle=orthogonalEdgeStyle;rounded=0;orthogonalLoop=1;jettySize=auto;html=1;exitX=0.5;exitY=1;exitDx=0;exitDy=0;entryX=0.5;entryY=0;entryDx=0;entryDy=0;" edge="1" parent="1" source="4zEHHfHkQW4jpvZdI9iD-16" target="4zEHHfHkQW4jpvZdI9iD-8">
          <mxGeometry relative="1" as="geometry" />
        </mxCell>
        <mxCell id="LhfVeXYQ2VsqvVL9Ju7a-50" value="Redis" style="edgeLabel;html=1;align=center;verticalAlign=middle;resizable=0;points=[];" vertex="1" connectable="0" parent="LhfVeXYQ2VsqvVL9Ju7a-49">
          <mxGeometry x="-0.1333" y="-3" relative="1" as="geometry">
            <mxPoint as="offset" />
          </mxGeometry>
        </mxCell>
        <mxCell id="LhfVeXYQ2VsqvVL9Ju7a-67" value="" style="group" vertex="1" connectable="0" parent="1">
          <mxGeometry x="40" y="400" width="320" height="350" as="geometry" />
        </mxCell>
        <mxCell id="LhfVeXYQ2VsqvVL9Ju7a-16" value="Microsoft SQL Server" style="shape=cylinder3;whiteSpace=wrap;html=1;boundedLbl=1;backgroundOutline=1;size=15;" vertex="1" parent="LhfVeXYQ2VsqvVL9Ju7a-67">
          <mxGeometry x="10" y="290" width="290" height="60" as="geometry" />
        </mxCell>
        <mxCell id="LhfVeXYQ2VsqvVL9Ju7a-19" value="" style="edgeStyle=orthogonalEdgeStyle;rounded=0;orthogonalLoop=1;jettySize=auto;html=1;" edge="1" parent="LhfVeXYQ2VsqvVL9Ju7a-67" source="LhfVeXYQ2VsqvVL9Ju7a-17" target="LhfVeXYQ2VsqvVL9Ju7a-16">
          <mxGeometry relative="1" as="geometry" />
        </mxCell>
        <mxCell id="LhfVeXYQ2VsqvVL9Ju7a-20" value="Entity Framework" style="edgeLabel;html=1;align=center;verticalAlign=middle;resizable=0;points=[];" vertex="1" connectable="0" parent="LhfVeXYQ2VsqvVL9Ju7a-19">
          <mxGeometry x="-0.0167" relative="1" as="geometry">
            <mxPoint as="offset" />
          </mxGeometry>
        </mxCell>
        <mxCell id="LhfVeXYQ2VsqvVL9Ju7a-17" value="Services" style="rounded=0;whiteSpace=wrap;html=1;" vertex="1" parent="LhfVeXYQ2VsqvVL9Ju7a-67">
          <mxGeometry x="10" y="220" width="290" height="30" as="geometry" />
        </mxCell>
        <mxCell id="LhfVeXYQ2VsqvVL9Ju7a-21" value="Desktop" style="rounded=0;whiteSpace=wrap;html=1;" vertex="1" parent="LhfVeXYQ2VsqvVL9Ju7a-67">
          <mxGeometry x="210" y="150" width="90" height="30" as="geometry" />
        </mxCell>
        <mxCell id="LhfVeXYQ2VsqvVL9Ju7a-22" value="REST API" style="rounded=0;whiteSpace=wrap;html=1;" vertex="1" parent="LhfVeXYQ2VsqvVL9Ju7a-67">
          <mxGeometry x="10" y="150" width="90" height="30" as="geometry" />
        </mxCell>
        <mxCell id="LhfVeXYQ2VsqvVL9Ju7a-23" value="GraphQL" style="rounded=0;whiteSpace=wrap;html=1;" vertex="1" parent="LhfVeXYQ2VsqvVL9Ju7a-67">
          <mxGeometry x="110" y="150" width="90" height="30" as="geometry" />
        </mxCell>
        <mxCell id="LhfVeXYQ2VsqvVL9Ju7a-24" value="&lt;b&gt;face&lt;/b&gt;" style="rounded=0;whiteSpace=wrap;html=1;" vertex="1" parent="LhfVeXYQ2VsqvVL9Ju7a-67">
          <mxGeometry x="10" y="80" width="290" height="30" as="geometry" />
        </mxCell>
        <mxCell id="LhfVeXYQ2VsqvVL9Ju7a-32" value="" style="edgeStyle=orthogonalEdgeStyle;rounded=0;orthogonalLoop=1;jettySize=auto;html=1;" edge="1" parent="LhfVeXYQ2VsqvVL9Ju7a-67" source="LhfVeXYQ2VsqvVL9Ju7a-31" target="LhfVeXYQ2VsqvVL9Ju7a-22">
          <mxGeometry relative="1" as="geometry" />
        </mxCell>
        <mxCell id="LhfVeXYQ2VsqvVL9Ju7a-38" value="https" style="edgeLabel;html=1;align=center;verticalAlign=middle;resizable=0;points=[];" vertex="1" connectable="0" parent="LhfVeXYQ2VsqvVL9Ju7a-32">
          <mxGeometry x="0.2833" y="-2" relative="1" as="geometry">
            <mxPoint x="2" y="-6" as="offset" />
          </mxGeometry>
        </mxCell>
        <mxCell id="LhfVeXYQ2VsqvVL9Ju7a-31" value="" style="rounded=0;whiteSpace=wrap;html=1;fillColor=none;strokeColor=none;" vertex="1" parent="LhfVeXYQ2VsqvVL9Ju7a-67">
          <mxGeometry x="10" y="80" width="90" height="30" as="geometry" />
        </mxCell>
        <mxCell id="LhfVeXYQ2VsqvVL9Ju7a-33" value="" style="edgeStyle=orthogonalEdgeStyle;rounded=0;orthogonalLoop=1;jettySize=auto;html=1;" edge="1" parent="LhfVeXYQ2VsqvVL9Ju7a-67" source="LhfVeXYQ2VsqvVL9Ju7a-30" target="LhfVeXYQ2VsqvVL9Ju7a-23">
          <mxGeometry relative="1" as="geometry" />
        </mxCell>
        <mxCell id="LhfVeXYQ2VsqvVL9Ju7a-37" value="https" style="edgeLabel;html=1;align=center;verticalAlign=middle;resizable=0;points=[];" vertex="1" connectable="0" parent="LhfVeXYQ2VsqvVL9Ju7a-33">
          <mxGeometry x="-0.3167" y="2" relative="1" as="geometry">
            <mxPoint x="-2" y="6" as="offset" />
          </mxGeometry>
        </mxCell>
        <mxCell id="LhfVeXYQ2VsqvVL9Ju7a-30" value="" style="rounded=0;whiteSpace=wrap;html=1;fillColor=none;strokeColor=none;" vertex="1" parent="LhfVeXYQ2VsqvVL9Ju7a-67">
          <mxGeometry x="110" y="80" width="90" height="30" as="geometry" />
        </mxCell>
        <mxCell id="LhfVeXYQ2VsqvVL9Ju7a-34" value="" style="edgeStyle=orthogonalEdgeStyle;rounded=0;orthogonalLoop=1;jettySize=auto;html=1;" edge="1" parent="LhfVeXYQ2VsqvVL9Ju7a-67" source="LhfVeXYQ2VsqvVL9Ju7a-29" target="LhfVeXYQ2VsqvVL9Ju7a-21">
          <mxGeometry relative="1" as="geometry" />
        </mxCell>
        <mxCell id="LhfVeXYQ2VsqvVL9Ju7a-35" value="&lt;b&gt;inter&lt;/b&gt;" style="edgeLabel;html=1;align=center;verticalAlign=middle;resizable=0;points=[];" vertex="1" connectable="0" parent="LhfVeXYQ2VsqvVL9Ju7a-34">
          <mxGeometry x="0.1333" relative="1" as="geometry">
            <mxPoint y="-3" as="offset" />
          </mxGeometry>
        </mxCell>
        <mxCell id="LhfVeXYQ2VsqvVL9Ju7a-29" value="WebView" style="rounded=0;whiteSpace=wrap;html=1;strokeColor=none;fillColor=none;dashed=1;fontColor=#666666;fontSize=11;" vertex="1" parent="LhfVeXYQ2VsqvVL9Ju7a-67">
          <mxGeometry x="200" y="70" width="110" height="50" as="geometry" />
        </mxCell>
        <mxCell id="LhfVeXYQ2VsqvVL9Ju7a-39" value="" style="rounded=0;whiteSpace=wrap;html=1;fillColor=none;strokeColor=none;" vertex="1" parent="LhfVeXYQ2VsqvVL9Ju7a-67">
          <mxGeometry x="10" y="220" width="90" height="30" as="geometry" />
        </mxCell>
        <mxCell id="LhfVeXYQ2VsqvVL9Ju7a-44" value="" style="edgeStyle=orthogonalEdgeStyle;rounded=0;orthogonalLoop=1;jettySize=auto;html=1;" edge="1" parent="LhfVeXYQ2VsqvVL9Ju7a-67" source="LhfVeXYQ2VsqvVL9Ju7a-22" target="LhfVeXYQ2VsqvVL9Ju7a-39">
          <mxGeometry relative="1" as="geometry" />
        </mxCell>
        <mxCell id="LhfVeXYQ2VsqvVL9Ju7a-40" value="" style="rounded=0;whiteSpace=wrap;html=1;fillColor=none;strokeColor=none;" vertex="1" parent="LhfVeXYQ2VsqvVL9Ju7a-67">
          <mxGeometry x="110" y="220" width="90" height="30" as="geometry" />
        </mxCell>
        <mxCell id="LhfVeXYQ2VsqvVL9Ju7a-43" value="" style="edgeStyle=orthogonalEdgeStyle;rounded=0;orthogonalLoop=1;jettySize=auto;html=1;" edge="1" parent="LhfVeXYQ2VsqvVL9Ju7a-67" source="LhfVeXYQ2VsqvVL9Ju7a-23" target="LhfVeXYQ2VsqvVL9Ju7a-40">
          <mxGeometry relative="1" as="geometry" />
        </mxCell>
        <mxCell id="LhfVeXYQ2VsqvVL9Ju7a-41" value="" style="rounded=0;whiteSpace=wrap;html=1;fillColor=none;strokeColor=none;" vertex="1" parent="LhfVeXYQ2VsqvVL9Ju7a-67">
          <mxGeometry x="210" y="220" width="90" height="30" as="geometry" />
        </mxCell>
        <mxCell id="LhfVeXYQ2VsqvVL9Ju7a-65" style="edgeStyle=orthogonalEdgeStyle;rounded=0;orthogonalLoop=1;jettySize=auto;html=1;entryX=1;entryY=0.5;entryDx=0;entryDy=0;exitX=1;exitY=0.5;exitDx=0;exitDy=0;endArrow=block;endFill=0;" edge="1" parent="LhfVeXYQ2VsqvVL9Ju7a-67" source="LhfVeXYQ2VsqvVL9Ju7a-41" target="LhfVeXYQ2VsqvVL9Ju7a-24">
          <mxGeometry relative="1" as="geometry">
            <mxPoint x="360" y="140" as="targetPoint" />
            <Array as="points">
              <mxPoint x="320" y="235" />
              <mxPoint x="320" y="95" />
            </Array>
          </mxGeometry>
        </mxCell>
        <mxCell id="LhfVeXYQ2VsqvVL9Ju7a-66" value="WebAssembly" style="edgeLabel;html=1;align=center;verticalAlign=middle;resizable=0;points=[];" vertex="1" connectable="0" parent="LhfVeXYQ2VsqvVL9Ju7a-65">
          <mxGeometry x="-0.2" y="-1" relative="1" as="geometry">
            <mxPoint y="13" as="offset" />
          </mxGeometry>
        </mxCell>
        <mxCell id="LhfVeXYQ2VsqvVL9Ju7a-42" value="" style="edgeStyle=orthogonalEdgeStyle;rounded=0;orthogonalLoop=1;jettySize=auto;html=1;" edge="1" parent="LhfVeXYQ2VsqvVL9Ju7a-67" source="LhfVeXYQ2VsqvVL9Ju7a-21" target="LhfVeXYQ2VsqvVL9Ju7a-41">
          <mxGeometry relative="1" as="geometry" />
        </mxCell>
        <mxCell id="LhfVeXYQ2VsqvVL9Ju7a-55" value="" style="rounded=1;whiteSpace=wrap;html=1;fillColor=none;dashed=1;strokeColor=#B3B3B3;" vertex="1" parent="LhfVeXYQ2VsqvVL9Ju7a-67">
          <mxGeometry y="70" width="310" height="50" as="geometry" />
        </mxCell>
        <mxCell id="LhfVeXYQ2VsqvVL9Ju7a-59" value="&lt;b&gt;work&lt;/b&gt;" style="ellipse;shape=cloud;whiteSpace=wrap;html=1;" vertex="1" parent="LhfVeXYQ2VsqvVL9Ju7a-67">
          <mxGeometry width="300" height="40" as="geometry" />
        </mxCell>
        <mxCell id="LhfVeXYQ2VsqvVL9Ju7a-63" style="edgeStyle=orthogonalEdgeStyle;rounded=0;orthogonalLoop=1;jettySize=auto;html=1;entryX=0.514;entryY=0.932;entryDx=0;entryDy=0;entryPerimeter=0;" edge="1" parent="LhfVeXYQ2VsqvVL9Ju7a-67" source="LhfVeXYQ2VsqvVL9Ju7a-24" target="LhfVeXYQ2VsqvVL9Ju7a-59">
          <mxGeometry relative="1" as="geometry" />
        </mxCell>
        <mxCell id="LhfVeXYQ2VsqvVL9Ju7a-68" value="INTER&amp;nbsp; &amp;nbsp;FACE&amp;nbsp; &amp;nbsp;WORK" style="text;html=1;strokeColor=none;fillColor=none;align=center;verticalAlign=middle;whiteSpace=wrap;rounded=0;fontSize=20;" vertex="1" parent="1">
          <mxGeometry x="40" y="160" width="640" height="40" as="geometry" />
        </mxCell>
      </root>
    </mxGraphModel>
  </diagram>
</mxfile>
